<svg xmlns="http://www.w3.org/2000/svg" xmlns:xlink="http://www.w3.org/1999/xlink" width="300" height="300" viewBox="0 0 300 300"><defs><linearGradient id="c"><stop offset="0" stop-color="#224e04"/><stop offset="1" stop-color="#4fb409"/></linearGradient><linearGradient id="b"><stop offset="0" stop-color="#3a8b02"/><stop offset="1" stop-color="#a9f608"/></linearGradient><linearGradient id="a"><stop offset="0" stop-color="#eee"/><stop offset="1" stop-color="#f9f9f9"/></linearGradient><linearGradient xlink:href="#a" id="d" x1="447.857" y1="515.219" x2="447.857" y2="220.219" gradientUnits="userSpaceOnUse" gradientTransform="translate(-230.714 -185.714)"/><linearGradient xlink:href="#b" id="f" x1="445" y1="498.533" x2="398.563" y2="260.258" gradientUnits="userSpaceOnUse" gradientTransform="matrix(.9306 0 0 .93102 -202.514 -200.62)"/><linearGradient xlink:href="#c" id="e" x1="195" y1="303.005" x2="191.429" y2="208.719" gradientUnits="userSpaceOnUse" gradientTransform="translate(0 -10)"/></defs><g transform="translate(-40 -32.362)"><rect style="isolation:auto;mix-blend-mode:normal" width="300" height="300" x="40" y="32.362" rx="0" ry="0" color="#000" fill="url(#d)" overflow="visible"/><path style="isolation:auto;mix-blend-mode:normal" d="M90.625 77.13c-7.853 0-14.432 6.586-14.432 14.434v161.598c0 7.848 6.58 14.436 14.432 14.436h55.896l36.972 44.65a8.45 8.45 0 0 0 13.016 0l36.97-44.65h55.897c7.853 0 14.432-6.588 14.432-14.436V91.564c0-7.848-6.58-14.435-14.432-14.435H90.625z" color="#000" fill-opacity=".182" overflow="visible"/><path d="M90.625 85.58c-3.314 0-5.982 2.67-5.982 5.985v161.598c0 3.315 2.668 5.986 5.982 5.986h59.87l39.504 47.71 39.504-47.71h59.87c3.315 0 5.983-2.672 5.983-5.987V91.565c0-3.316-2.668-5.986-5.982-5.986z" style="isolation:auto;mix-blend-mode:normal" color="#000" fill="url(#e)" overflow="visible"/><path style="isolation:auto;mix-blend-mode:normal" d="M90.625 69.58c-3.314 0-5.982 2.67-5.982 5.985v161.598c0 3.315 2.668 5.986 5.982 5.986h59.87l39.504 45.71 39.504-45.71h59.87c3.315 0 5.983-2.672 5.983-5.987V75.565c0-3.316-2.668-5.986-5.982-5.986z" color="#000" fill="url(#f)" overflow="visible"/><path d="M189.08 109c-.435-.294-.913-.653-1.437-.643-.535.01-1 .407-1.437.715-18.818 13.286-49.722 47.998-49.722 47.998-.403.37-.657.903-.657 1.492 0 1.128.914 2.037 2.038 2.037h14.003v53.046h23.623v-30.852c0-1.143.926-2.073 2.068-2.073h20.136c1.145 0 2.073.93 2.073 2.074v30.858h23.644V160.54l14.004-.01c1.133 0 2.044-.91 2.044-2.037 0-.592-.254-1.123-.455-1.308 0 0-30.836-35.29-49.923-48.186z" fill="#50a003"/><path d="M191.437 110.916c-.435-.293-.912-.653-1.437-.643-.535.01-1 .407-1.437.715-18.818 13.286-49.722 48-49.722 48-.402.367-.656.9-.656 1.49 0 1.128.914 2.037 2.038 2.037h14.003v53.047h23.623V184.71c0-1.143.925-2.072 2.067-2.072h20.136c1.146 0 2.074.93 2.074 2.072v30.858h23.644v-53.113l14.003-.01c1.134 0 2.046-.91 2.046-2.036 0-.593-.254-1.124-.456-1.31 0 0-30.836-35.288-49.923-48.185z" fill="#fff"/><path style="isolation:auto;mix-blend-mode:normal" d="M302.998 86.915c.515 1.466.81 3.03.81 4.65v161.598c0 7.848-6.58 14.436-14.433 14.436h-55.898l-36.97 44.65a8.45 8.45 0 0 1-13.015 0l-36.97-44.65H90.624c-3.67 0-7.05-1.454-9.623-3.79 1.977 5.635 7.392 9.79 13.623 9.79h55.896l36.972 44.65a8.45 8.45 0 0 0 13.016 0l36.97-44.65h55.897c7.853 0 14.432-6.59 14.432-14.437V97.565c0-4.18-1.878-7.99-4.81-10.65z" color="#000" fill="#fff" fill-opacity=".724" overflow="visible"/></g></svg>